<?xml version="1.0" encoding="utf-8"?>
<!-- Generator: Adobe Illustrator 27.5.0, SVG Export Plug-In . SVG Version: 6.00 Build 0)  -->
<svg version="1.1" id="Layer_2" xmlns="http://www.w3.org/2000/svg" xmlns:xlink="http://www.w3.org/1999/xlink" x="0px" y="0px"
	 viewBox="0 0 163.826 171.496" style="enable-background:new 0 0 163.826 171.496;" xml:space="preserve">
<g>
	<g>
		<path style="fill:#CCCCCC;" d="M45.141,103.242c0.129-0.172,0.328-0.282,0.543-0.3l22.779-1.955
			c0.148-0.013,0.292,0.018,0.417,0.084c0.156,0.081,0.282,0.216,0.352,0.387c0.126,0.308,0.038,0.662-0.219,0.875
			c-0.069,0.058-6.95,5.857-6.782,14.023c0.017,0.854,0.786,2.604,1.404,4.011c0.464,1.057,0.903,2.056,1.081,2.762
			c0.607,2.399,0.117,4.268-0.277,5.769c-0.518,1.976-0.803,3.065,1.179,4.54c2.729,2.029,3.926,5.083,3.463,8.83
			c-0.584,4.73,1.137,6.428,2.802,8.069c1.265,1.248,2.573,2.538,2.217,4.948c-0.437,2.958-3.511,7.322-8.539,9.94
			c-5,2.603-10.53,2.646-15.57,0.123c0,0-0.132-0.067-0.132-0.068c-4.251-2.221-7.745-8.561-9.842-17.852
			C36.791,133.129,37.515,113.36,45.141,103.242z"/>
		<path style="fill:#EBEBFD;" d="M68.528,101.746c0,0-7.235,5.977-7.058,14.626c0.034,1.666,2.098,5.319,2.509,6.944
			c1.319,5.214-2.971,7.642,1.186,10.734c2.54,1.888,3.584,4.709,3.162,8.125c-1.097,8.879,5.724,8.233,5.02,12.998
			c-0.805,5.446-11.323,15.348-23.016,9.494c-11.693-5.854-16.219-45.527-4.582-60.966L68.528,101.746z"/>
		<g>
			<path style="fill:#EBEBFD;" d="M67.554,158.956c0.812-5.309-6.714-4.539-5.438-14.429c0.491-3.805-0.638-6.936-3.425-9.02
				c-4.561-3.409,0.188-6.144-1.227-11.938c-0.441-1.805-2.689-5.855-2.714-7.709c-0.076-5.62,2.626-10.242,4.889-13.118
				l7.861-0.675c0,0-7.235,5.977-7.058,14.626c0.034,1.666,2.098,5.319,2.509,6.943c1.319,5.214-2.971,7.643,1.186,10.734
				c2.54,1.889,3.583,4.71,3.162,8.125c-1.097,8.879,5.724,8.233,5.021,12.998c-0.415,2.809-3.418,6.798-7.828,9.205
				C66.205,162.719,67.296,160.643,67.554,158.956z"/>
		</g>
		<g style="opacity:0.7;">
			<path style="fill:#EBEBFD;" d="M68.581,158.634c0.812-5.309-6.714-4.539-5.438-14.429c0.491-3.805-0.639-6.936-3.425-9.02
				c-4.56-3.409,0.188-6.145-1.227-11.938c-0.441-1.805-2.689-5.855-2.714-7.709c-0.076-5.62,2.626-10.243,4.889-13.118l7.861-0.674
				c0,0-7.235,5.977-7.058,14.626c0.034,1.666,2.098,5.319,2.509,6.944c1.319,5.214-2.971,7.642,1.186,10.734
				c2.54,1.888,3.583,4.709,3.162,8.125c-1.097,8.879,5.724,8.233,5.02,12.998c-0.415,2.809-3.418,6.798-7.828,9.205
				C67.232,162.397,68.323,160.321,68.581,158.634z"/>
		</g>
		<g>
			<path style="fill:#EBEBFD;" d="M66.225,143.238c0.491-3.805-0.638-6.936-3.425-9.019c-4.56-3.409,0.188-6.145-1.227-11.938
				c-0.441-1.805-2.689-5.855-2.714-7.709c-0.07-5.157,2.199-9.469,4.322-12.367l5.347-0.459c0,0-7.235,5.977-7.058,14.626
				c0.034,1.666,2.098,5.319,2.509,6.944c1.319,5.214-2.971,7.642,1.186,10.734c2.54,1.888,3.583,4.709,3.162,8.125
				c-1.097,8.879,5.724,8.233,5.02,12.998c-0.208,1.41-1.07,3.118-2.433,4.774c0.382-0.803,0.642-1.576,0.749-2.279
				C72.475,152.358,64.949,153.128,66.225,143.238z"/>
		</g>
		<g style="opacity:0.6;">
			<path style="fill:#EBEBFD;" d="M41.105,129.991c0.127-0.244,0.275-0.47,0.431-0.687c0.034-0.047,0.067-0.093,0.102-0.138
				c0.083-0.109,0.17-0.214,0.26-0.316c0,0,0,0,0,0c0,0,0.001-0.001,0.001-0.001c0.086-0.097,0.172-0.195,0.263-0.285
				c0.004-0.004,0.008-0.007,0.012-0.011c0.193-0.189,0.4-0.36,0.615-0.519c0.023-0.017,0.044-0.034,0.067-0.05
				c0.225-0.161,0.458-0.306,0.702-0.432c0,0,0,0,0,0c0,0,0,0,0,0c0.067-0.035,0.135-0.066,0.203-0.097
				c0.015-0.007,0.03-0.015,0.046-0.022c0.121-0.056,0.244-0.106,0.369-0.153c0.034-0.013,0.067-0.025,0.101-0.037
				c0.117-0.042,0.235-0.08,0.355-0.115c0.042-0.012,0.085-0.022,0.128-0.034c0.116-0.03,0.232-0.059,0.35-0.082
				c0.045-0.009,0.091-0.014,0.136-0.022c0.206-0.035,0.414-0.059,0.623-0.071c0.067-0.004,0.134-0.011,0.201-0.013
				c0.082-0.002,0.164,0.002,0.246,0.004c0.093,0.002,0.186,0.003,0.279,0.009c0.078,0.005,0.156,0.015,0.234,0.023
				c0.098,0.01,0.196,0.023,0.294,0.038c0.075,0.012,0.148,0.026,0.223,0.041c0.104,0.021,0.207,0.046,0.31,0.073
				c0.068,0.018,0.137,0.035,0.204,0.056c0.114,0.035,0.227,0.075,0.34,0.117c0.056,0.021,0.113,0.039,0.169,0.062
				c0.168,0.068,0.334,0.143,0.498,0.229c0,0,0,0,0,0l0,0l0,0c1.056,0.552,1.869,1.385,2.396,2.36
				c0.088,0.162,0.167,0.329,0.239,0.499c0.286,0.679,0.442,1.41,0.454,2.152c0.015,0.927-0.194,1.872-0.654,2.752
				c-0.142,0.272-0.308,0.522-0.485,0.761c-0.019,0.026-0.038,0.053-0.058,0.079c-0.344,0.448-0.745,0.834-1.189,1.154
				c-0.018,0.013-0.035,0.027-0.054,0.04c-0.228,0.16-0.465,0.302-0.712,0.427c-0.028,0.014-0.057,0.027-0.085,0.041
				c-0.495,0.241-1.021,0.409-1.563,0.501c-0.044,0.008-0.089,0.015-0.133,0.021c-0.264,0.038-0.53,0.061-0.798,0.062
				c-0.032,0-0.064-0.003-0.096-0.003c-0.248-0.003-0.497-0.023-0.745-0.059c-0.042-0.006-0.084-0.01-0.126-0.016
				c-0.261-0.044-0.52-0.108-0.778-0.189c-0.054-0.017-0.108-0.036-0.162-0.055c-0.263-0.092-0.523-0.196-0.778-0.329l0,0l0,0l0,0
				c-1.056-0.552-1.869-1.385-2.396-2.36c-0.176-0.325-0.319-0.666-0.429-1.017c-0.441-1.405-0.346-2.977,0.39-4.385
				C41.104,129.992,41.104,129.992,41.105,129.991z"/>
			<path style="fill:#EBEBFD;" d="M47.989,145.863c0.047-0.06,0.098-0.113,0.148-0.17c0.009-0.011,0.018-0.022,0.028-0.032
				c-0.011,0.01-0.023,0.017-0.034,0.028c0.019-0.021,0.041-0.037,0.06-0.057c0.085-0.092,0.174-0.179,0.267-0.261
				c0.064-0.057,0.127-0.112,0.194-0.164c0.108-0.083,0.221-0.158,0.337-0.229c0.045-0.028,0.087-0.061,0.133-0.087
				c0.03-0.017,0.059-0.033,0.089-0.049c0.006-0.003,0.012-0.008,0.019-0.011c-0.002,0.002-0.003,0.004-0.005,0.006
				c0.058-0.03,0.12-0.049,0.18-0.076c0.113-0.052,0.225-0.104,0.343-0.145c0.097-0.033,0.196-0.057,0.296-0.083
				c0.123-0.032,0.246-0.059,0.372-0.079c0.098-0.015,0.195-0.025,0.294-0.032c0.135-0.01,0.27-0.011,0.406-0.006
				c0.092,0.003,0.184,0.005,0.276,0.016c0.153,0.016,0.303,0.048,0.455,0.083c0.077,0.018,0.153,0.029,0.229,0.053
				c0.226,0.068,0.45,0.154,0.667,0.267c0,0,0,0,0,0l0,0h0c1.863,0.973,2.584,3.273,1.611,5.136
				c-0.11,0.211-0.241,0.403-0.384,0.583c-0.061,0.077-0.129,0.145-0.195,0.217c-0.049,0.053-0.093,0.111-0.145,0.161
				c0.005-0.002,0.01-0.004,0.014-0.006c-0.011,0.011-0.023,0.018-0.034,0.029c-0.004,0.004-0.008,0.01-0.012,0.014
				c0.003-0.003,0.005-0.007,0.008-0.01c-0.031,0.03-0.066,0.054-0.098,0.082c-0.07,0.062-0.139,0.122-0.213,0.178
				c-0.113,0.087-0.231,0.163-0.352,0.237c-0.071,0.043-0.139,0.089-0.212,0.127c-0.193,0.1-0.391,0.187-0.597,0.252
				c-0.038,0.012-0.078,0.017-0.117,0.027c-0.176,0.051-0.355,0.089-0.538,0.114c-0.077,0.01-0.154,0.013-0.232,0.018
				c-0.149,0.011-0.299,0.014-0.449,0.007c-0.082-0.004-0.163-0.01-0.245-0.019c-0.155-0.018-0.31-0.047-0.464-0.085
				c-0.072-0.017-0.143-0.03-0.214-0.052c-0.222-0.068-0.442-0.151-0.656-0.263h0l0,0c-0.699-0.365-1.237-0.917-1.585-1.562
				c-0.232-0.43-0.38-0.902-0.435-1.387c-0.082-0.729,0.044-1.489,0.409-2.187l0,0l0,0
				C47.716,146.234,47.848,146.044,47.989,145.863z M53.624,150.934c0.016-0.018,0.03-0.039,0.045-0.057
				c-0.022,0.022-0.044,0.045-0.066,0.067C53.61,150.94,53.617,150.937,53.624,150.934z"/>
		</g>
		<g>
			<path style="fill:#EBEBFD;" d="M42.483,128.995c-1.471,2.816-0.381,6.291,2.435,7.762c2.815,1.471,6.291,0.381,7.761-2.435
				c1.471-2.816,0.381-6.29-2.435-7.761C47.429,125.09,43.954,126.18,42.483,128.995z"/>
			<g>
				<path style="fill:#EBEBFD;" d="M49.896,126.924c-2.237-1.168-4.886-0.716-6.619,0.928c1.71-1.937,4.575-2.542,6.969-1.292
					c2.816,1.471,3.906,4.946,2.435,7.761c-0.302,0.579-0.693,1.081-1.142,1.507c0.302-0.342,0.572-0.72,0.793-1.143
					C53.801,131.87,52.711,128.395,49.896,126.924z"/>
			</g>
			<g>
				<path style="fill:#EBEBFD;" d="M44.936,126.556c-0.42,0.412-0.785,0.893-1.072,1.443c-1.471,2.816-0.381,6.29,2.435,7.762
					c1.727,0.902,3.701,0.837,5.31,0.005c-1.732,1.699-4.423,2.176-6.689,0.992c-2.816-1.471-3.906-4.946-2.435-7.762
					C43.052,127.907,43.922,127.08,44.936,126.556z"/>
			</g>
		</g>
		<g>
			<path style="fill:#EBEBFD;" d="M48.986,145.448c-0.973,1.863-0.252,4.163,1.611,5.136c1.863,0.973,4.163,0.252,5.136-1.611
				c0.973-1.863,0.252-4.163-1.611-5.136C52.259,142.863,49.96,143.585,48.986,145.448z"/>
			<g>
				<path style="fill:#EBEBFD;" d="M53.891,144.077c-1.48-0.773-3.233-0.474-4.38,0.614c1.132-1.282,3.028-1.682,4.611-0.855
					c1.863,0.974,2.585,3.273,1.611,5.136c-0.2,0.383-0.459,0.715-0.756,0.997c0.2-0.226,0.379-0.477,0.525-0.756
					C56.476,147.35,55.755,145.051,53.891,144.077z"/>
			</g>
			<g>
				<path style="fill:#EBEBFD;" d="M50.609,143.833c-0.278,0.272-0.52,0.591-0.71,0.955c-0.973,1.863-0.252,4.163,1.611,5.136
					c1.143,0.597,2.449,0.554,3.514,0.003c-1.146,1.124-2.927,1.44-4.427,0.657c-1.863-0.973-2.584-3.273-1.611-5.137
					C49.362,144.728,49.938,144.18,50.609,143.833z"/>
			</g>
		</g>
		<g style="opacity:0.6;">
			<path style="fill:#EBEBFD;" d="M45.749,103.7l22.779-1.954c0,0-4.622,3.823-6.386,9.775l-20.899,1.638
				C42.325,109.514,43.812,106.27,45.749,103.7z"/>
		</g>
		<g style="opacity:0.7;">
			<path style="fill:#EBEBFD;" d="M45.749,103.7l1.46-0.125c-9.503,16.853-4.864,52.867,6.234,58.423
				c6.42,3.214,12.481,1.675,16.78-1.264c-4.106,4.409-11.708,8.03-19.892,3.933C38.638,158.813,34.112,119.14,45.749,103.7z"/>
		</g>
	</g>
	<g>
		<g>
			<path style="fill:#CCCCCC;" d="M7.669,69.276c1.233-1.312,2.795-2.304,4.641-2.951c3.18-1.114,6.277-0.903,9.207,0.628
				c6.178,3.228,10.593,11.938,12.664,19.013c1.469,5.018,3.156,12.483,0.853,19.348c-1.454,4.336-4.428,7.545-8.162,8.805
				c-2.937,0.992-5.784,0.785-8.462-0.614c-0.001,0-0.001,0-0.001,0c-2.467-1.289-4.766-3.618-6.648-6.735
				c-2.118-3.509-3.903-7.714-5.305-12.5C2.945,82.274,3.353,73.864,7.669,69.276z"/>
			<path style="fill:#666666;" d="M8.224,69.798c1.104-1.173,2.527-2.119,4.338-2.754c11.257-3.945,18.431,10.742,20.889,19.137
				c1.762,6.018,2.907,12.795,0.862,18.892c-1.246,3.716-3.88,7.043-7.684,8.326c-6.273,2.117-11.149-1.942-14.216-7.021
				c-2.297-3.805-3.981-8.067-5.226-12.321C5.16,87.133,2.728,75.64,8.224,69.798z"/>
			<path style="opacity:0.5;fill:#666666;" d="M29.584,109.951c-5.563,1.629-12.837-6.493-16.246-18.139
				c-3.41-11.646-1.664-22.408,3.899-24.036c5.563-1.629,12.837,6.492,16.246,18.139C36.893,97.561,35.147,108.322,29.584,109.951z"
				/>
			<path style="fill:#666666;" d="M8.224,69.798c1.104-1.174,2.527-2.119,4.338-2.754c3.516-1.232,6.634-0.647,9.334,0.997
				c-2.375-1.073-5.039-1.325-7.985-0.292c-1.811,0.635-3.234,1.58-4.338,2.754C4.078,76.345,6.51,87.838,8.536,94.761
				c1.245,4.254,2.928,8.516,5.226,12.321c1.485,2.458,3.396,4.67,5.681,6.066c-2.891-1.262-5.263-3.843-7.031-6.771
				c-2.297-3.805-3.98-8.067-5.226-12.321C5.16,87.133,2.728,75.64,8.224,69.798z"/>
		</g>
		<path style="fill:#CCCCCC;" d="M19.037,67.781l96.455-57.464c0.229-0.137,0.51-0.142,0.742-0.021
			c0.033,0.017,0.065,0.036,0.095,0.059c0.246,0.179,0.362,0.488,0.295,0.785c-6.08,26.734,0.989,49.332,7.99,63.583
			c7.601,15.472,16.768,24.73,16.86,24.822c0.211,0.21,0.279,0.523,0.177,0.802c-0.104,0.279-0.359,0.473-0.655,0.496
			l-109.741,8.602c-1.211,0.33-2.522,0.133-3.9-0.586c-4.232-2.211-8.576-9.14-11.068-17.652
			C12.888,79.599,14.101,69.354,19.037,67.781z"/>
		<path style="fill:#EBEBFD;" d="M19.348,68.482l96.534-57.511c-11.877,52.218,25.053,89.111,25.053,89.111L31.119,108.69
			c-4.538,1.328-10.852-6.595-14.103-17.699C13.766,79.888,14.81,69.811,19.348,68.482z"/>
		<g>
			<path style="fill:#666666;" d="M17.017,90.992c3.251,11.103,9.565,19.027,14.103,17.699l34.241-2.684
				C41.242,83.044,45.533,64.236,48.712,50.988L19.348,68.482C14.81,69.811,13.766,79.888,17.017,90.992z"/>
		</g>
		<g style="opacity:0.7;">
			<path style="fill:#EBEBFD;" d="M28.563,67.647l74.008-44.09c-0.02,1.178-0.587,9.427-0.562,10.607L27.724,71.054
				C28.247,69.64,28.201,69.117,28.563,67.647z"/>
		</g>
		<path style="fill:#CCCCCC;" d="M119.662,4.661c0.291-0.085,0.585-0.149,0.87-0.198c2.49-0.479,5.187,0.027,8.015,1.504
			c1.088,0.568,2.204,1.287,3.265,2.102c8.525,5.498,17.6,21.237,23.121,40.095l-0.731,0.214l0.754-0.132l-0.73,0.215l0.752-0.141
			c0.082,0.278,0.158,0.556,0.236,0.833l0.416,1.479c0.102,0.375,0.198,0.749,0.295,1.122l0.073,0.278c0,0,0.221,0.845,0.292,1.13
			l0.203,0.833c3.609,14.763,4.238,28.749,1.695,37.381c-1.489,6.001-4.121,10.153-7.614,12.01c-0.28,0.15-0.565,0.29-0.848,0.407
			c-0.326,0.139-0.635,0.249-0.947,0.341c-1.111,0.325-2.284,0.445-3.486,0.357c-1.544-0.113-3.164-0.57-4.814-1.359
			c-0.195-0.093-0.391-0.191-0.587-0.293l-0.001,0c-0.209-0.109-0.418-0.224-0.628-0.343c-0.803-0.457-1.622-0.996-2.434-1.602
			c-0.805-0.6-1.622-1.28-2.43-2.021c-5.67-5.197-11.262-13.72-15.743-23.998c-0.647-1.483-1.28-3.025-1.881-4.583
			c-0.303-0.784-0.599-1.576-0.888-2.376c-0.878-2.426-1.696-4.93-2.43-7.44c-1.465-5.003-2.604-10.026-3.387-14.931
			c-0.38-2.374-0.677-4.743-0.885-7.039c-0.205-2.265-0.326-4.497-0.359-6.634c-0.055-3.553,0.13-6.887,0.55-9.911
			c0.168-1.211,0.375-2.384,0.617-3.488c0.616-2.816,1.469-5.272,2.535-7.301C114.35,7.704,116.748,5.514,119.662,4.661z"/>
		<g style="opacity:0.6;">
			<path style="fill:#EBEBFD;" d="M111.011,61.235c-5.191-17.733-6.124-34.445-3.298-45.397l8.169-4.866
				c-11.877,52.218,25.053,89.111,25.053,89.111l-8.717,0.683C124.102,92.952,116.099,78.613,111.011,61.235z"/>
			<path style="fill:#EBEBFD;" d="M66.297,101.312c22.772,2.226,55.461-0.868,70.091-6.483c2.715,3.42,4.548,5.253,4.548,5.253
				L31.119,108.69c-4.538,1.328-10.852-6.595-14.103-17.699c-2.091-7.141-2.396-13.843-1.147-18.081
				C27.58,86.462,35.397,98.292,66.297,101.312z"/>
		</g>
		
			<ellipse transform="matrix(0.9597 -0.281 0.281 0.9597 -9.8773 39.9019)" style="fill:#666666;" cx="134.218" cy="54.398" rx="20.87" ry="51.062"/>
		<g style="opacity:0.5;">
			<path style="fill:#666666;" d="M119.872,5.392c0.468-0.137,0.946-0.219,1.428-0.276c-9.639,5.128-11.54,28.524-4.029,54.179
				c7.588,25.921,22.023,44.718,32.948,43.418c-0.53,0.282-1.077,0.522-1.654,0.69c-11.062,3.239-26.453-16.077-34.376-43.142
				C106.266,33.196,108.81,8.631,119.872,5.392z"/>
		</g>
		<path style="fill:#EBEBFD;" d="M150.945,99.576c-9.281,2.717-22.871-15.799-30.354-41.358
			c-7.482-25.559-6.024-48.481,3.257-51.198c9.282-2.717,22.871,15.799,30.354,41.358C161.685,73.937,160.226,96.859,150.945,99.576
			z"/>
		<path style="fill:#EBEBFD;" d="M152.47,50.05c-7.482-25.559-21.072-44.075-30.354-41.358c-0.736,0.215-1.417,0.571-2.054,1.032
			c1.067-1.353,2.33-2.278,3.786-2.704c9.282-2.717,22.871,15.799,30.354,41.358c6.889,23.532,6.193,44.816-1.204,50.166
			C158.731,91.272,158.778,71.599,152.47,50.05z"/>
		<g>
			<path style="fill:#EBEBFD;" d="M120.591,58.218c-5.361-18.311-6.131-35.267-2.724-44.41c7.881,5.709,16.524,20.538,21.953,39.082
				c5.361,18.311,6.131,35.267,2.724,44.41C134.664,91.591,126.02,76.762,120.591,58.218z"/>
		</g>
		<g>
			<path style="fill:#999999;" d="M120.584,58.214c-2.134-7.289-3.538-14.36-4.243-20.812c0.031-0.003,0.059-0.019,0.091-0.019
				l10.839,0.074c0.848-0.214,1.764-0.069,2.723,0.432c3.336,1.743,6.888,7.642,9.051,15.029c2.888,9.866,2.189,18.165-1.617,19.383
				l-9.565,4.915c-0.006,0.003-0.014,0.003-0.02,0.006C125.11,71.595,122.62,65.169,120.584,58.214z"/>
			<g>
				<path style="fill:#EBEBFD;" d="M120.584,58.214c-2.052-7.01-3.428-13.819-4.158-20.07l10.942,0.074
					c9.572,12.823,9.77,33.374,9.77,33.374l-9.626,4.946C124.911,71.077,122.538,64.889,120.584,58.214z"/>
			</g>
			<g>
				<path style="fill:#EBEBFD;" d="M131.922,47.955c0.011-0.585-0.001-1.164-0.031-1.736c5.116,11.926,5.248,25.373,5.248,25.373
					l-9.626,4.946c-1.725-3.621-3.346-7.566-4.814-11.756C128.661,67.489,131.778,55.792,131.922,47.955z"/>
			</g>
			<path style="fill:#999999;" d="M127.154,37.487c0.881-0.258,1.836-0.123,2.838,0.401c3.336,1.743,6.889,7.643,9.051,15.03
				c1.329,4.539,1.936,9.008,1.709,12.581c-0.244,3.83-1.451,6.253-3.4,6.824c-0.881,0.258-1.836,0.123-2.838-0.4
				c-0.001,0-0.001,0-0.001-0.001c-3.335-1.742-6.887-7.642-9.05-15.029C122.556,46.964,123.284,38.622,127.154,37.487z"/>
			<path style="fill:#B3B3B3;" d="M137.139,71.592c-3.347,0.98-8.247-5.697-10.945-14.913c-2.698-9.216-2.172-17.481,1.174-18.461
				c3.347-0.98,8.247,5.697,10.945,14.913C141.011,62.347,140.485,70.612,137.139,71.592z"/>
			<g>
				<path style="fill:#B3B3B3;" d="M126.193,56.679c-1.94-6.628-2.205-12.748-0.96-16.036c2.849,2.043,5.979,7.39,7.943,14.099
					c1.94,6.628,2.205,12.748,0.96,16.036C131.288,68.735,128.158,63.389,126.193,56.679z"/>
			</g>
		</g>
	</g>
</g>
</svg>
